<svg xmlns="http://www.w3.org/2000/svg" xmlns:xlink="http://www.w3.org/1999/xlink" width="500" zoomAndPan="magnify" viewBox="0 0 375 374.999991" height="500" preserveAspectRatio="xMidYMid meet" version="1.2"><defs><clipPath id="9854ab66d8"><path d="M 19.726562 57 L 176 57 L 176 339 L 19.726562 339 Z M 19.726562 57 "/></clipPath><clipPath id="1b58548bc4"><path d="M 189 42.757812 L 342.976562 42.757812 L 342.976562 349.507812 L 189 349.507812 Z M 189 42.757812 "/></clipPath><clipPath id="b529b41fa4"><rect x="0" width="8" y="0" height="14"/></clipPath></defs><g id="3c5924a68b"><rect x="0" width="375" y="0" height="374.999991" style="fill:#ffffff;fill-opacity:1;stroke:none;"/><rect x="0" width="375" y="0" height="374.999991" style="fill:#ffffff;fill-opacity:1;stroke:none;"/><path style=" stroke:none;fill-rule:nonzero;fill:#ffffff;fill-opacity:1;" d="M 217.546875 51.125 C 216.910156 51.125 216.273438 51.15625 215.636719 51.21875 C 215.003906 51.28125 214.371094 51.375 213.746094 51.5 C 213.121094 51.621094 212.5 51.777344 211.890625 51.964844 C 211.28125 52.148438 210.679688 52.363281 210.089844 52.609375 C 209.5 52.855469 208.921875 53.125 208.359375 53.429688 C 207.796875 53.730469 207.25 54.058594 206.71875 54.414062 C 206.1875 54.769531 205.675781 55.148438 205.183594 55.554688 C 204.691406 55.960938 204.21875 56.386719 203.765625 56.839844 C 203.316406 57.292969 202.886719 57.765625 202.480469 58.261719 C 202.078125 58.753906 201.695312 59.265625 201.34375 59.796875 C 200.988281 60.332031 200.660156 60.878906 200.359375 61.441406 C 200.058594 62.003906 199.785156 62.582031 199.542969 63.171875 C 199.296875 63.765625 199.082031 64.367188 198.898438 64.976562 C 198.710938 65.589844 198.554688 66.207031 198.433594 66.835938 C 198.308594 67.460938 198.214844 68.09375 198.152344 68.730469 C 198.089844 69.367188 198.058594 70.003906 198.058594 70.644531 C 198.058594 71.28125 198.089844 71.921875 198.152344 72.558594 C 198.214844 73.191406 198.308594 73.824219 198.433594 74.453125 C 198.554688 75.078125 198.710938 75.699219 198.898438 76.308594 C 199.082031 76.921875 199.296875 77.523438 199.542969 78.113281 C 199.785156 78.703125 200.058594 79.28125 200.359375 79.84375 C 200.660156 80.410156 200.988281 80.957031 201.34375 81.488281 C 201.695312 82.019531 202.078125 82.53125 202.480469 83.027344 C 202.886719 83.519531 203.316406 83.996094 203.765625 84.445312 C 204.21875 84.898438 204.691406 85.328125 205.183594 85.734375 C 205.675781 86.136719 206.1875 86.519531 206.71875 86.875 C 207.25 87.230469 207.796875 87.558594 208.359375 87.859375 C 208.921875 88.160156 209.5 88.433594 210.089844 88.679688 C 210.679688 88.921875 211.28125 89.136719 211.890625 89.324219 C 212.5 89.507812 213.121094 89.664062 213.746094 89.789062 C 214.371094 89.914062 215.003906 90.007812 215.636719 90.070312 C 216.273438 90.132812 216.910156 90.164062 217.546875 90.164062 C 218.1875 90.164062 218.824219 90.132812 219.457031 90.070312 C 220.09375 90.007812 220.722656 89.914062 221.351562 89.789062 C 221.976562 89.664062 222.59375 89.507812 223.207031 89.324219 C 223.816406 89.136719 224.417969 88.921875 225.007812 88.679688 C 225.597656 88.433594 226.171875 88.160156 226.734375 87.859375 C 227.296875 87.558594 227.84375 87.230469 228.375 86.875 C 228.90625 86.519531 229.417969 86.136719 229.914062 85.734375 C 230.40625 85.328125 230.878906 84.898438 231.328125 84.445312 C 231.78125 83.996094 232.210938 83.519531 232.613281 83.027344 C 233.019531 82.53125 233.398438 82.019531 233.753906 81.488281 C 234.109375 80.957031 234.4375 80.410156 234.738281 79.84375 C 235.039062 79.28125 235.3125 78.703125 235.554688 78.113281 C 235.800781 77.523438 236.015625 76.921875 236.199219 76.308594 C 236.382812 75.699219 236.539062 75.078125 236.664062 74.453125 C 236.789062 73.824219 236.882812 73.191406 236.945312 72.558594 C 237.007812 71.921875 237.039062 71.28125 237.039062 70.644531 C 237.039062 70.003906 237.007812 69.367188 236.945312 68.730469 C 236.882812 68.09375 236.789062 67.460938 236.664062 66.835938 C 236.539062 66.207031 236.382812 65.589844 236.199219 64.976562 C 236.015625 64.367188 235.800781 63.765625 235.554688 63.171875 C 235.3125 62.582031 235.039062 62.003906 234.738281 61.441406 C 234.4375 60.878906 234.109375 60.332031 233.753906 59.796875 C 233.398438 59.265625 233.019531 58.753906 232.613281 58.261719 C 232.210938 57.765625 231.78125 57.292969 231.328125 56.839844 C 230.878906 56.386719 230.40625 55.960938 229.914062 55.554688 C 229.417969 55.148438 228.90625 54.769531 228.375 54.414062 C 227.84375 54.058594 227.296875 53.730469 226.734375 53.429688 C 226.171875 53.125 225.597656 52.855469 225.007812 52.609375 C 224.417969 52.363281 223.816406 52.148438 223.207031 51.964844 C 222.59375 51.777344 221.976562 51.621094 221.351562 51.5 C 220.722656 51.375 220.09375 51.28125 219.457031 51.21875 C 218.824219 51.15625 218.1875 51.125 217.546875 51.125 Z M 217.546875 302.101562 C 216.910156 302.101562 216.273438 302.132812 215.636719 302.195312 C 215.003906 302.257812 214.371094 302.351562 213.746094 302.476562 C 213.121094 302.601562 212.5 302.753906 211.890625 302.941406 C 211.28125 303.125 210.679688 303.339844 210.089844 303.585938 C 209.5 303.832031 208.921875 304.105469 208.359375 304.40625 C 207.796875 304.707031 207.25 305.035156 206.71875 305.390625 C 206.1875 305.746094 205.675781 306.125 205.183594 306.53125 C 204.691406 306.9375 204.21875 307.367188 203.765625 307.816406 C 203.316406 308.269531 202.886719 308.742188 202.480469 309.238281 C 202.078125 309.730469 201.695312 310.246094 201.34375 310.777344 C 200.988281 311.308594 200.660156 311.855469 200.359375 312.417969 C 200.058594 312.984375 199.785156 313.558594 199.542969 314.152344 C 199.296875 314.742188 199.082031 315.34375 198.898438 315.953125 C 198.710938 316.566406 198.554688 317.183594 198.433594 317.8125 C 198.308594 318.441406 198.214844 319.070312 198.152344 319.707031 C 198.089844 320.34375 198.058594 320.980469 198.058594 321.621094 C 198.058594 322.261719 198.089844 322.898438 198.152344 323.535156 C 198.214844 324.171875 198.308594 324.800781 198.433594 325.429688 C 198.554688 326.054688 198.710938 326.675781 198.898438 327.289062 C 199.082031 327.898438 199.296875 328.5 199.542969 329.089844 C 199.785156 329.679688 200.058594 330.257812 200.359375 330.824219 C 200.660156 331.386719 200.988281 331.933594 201.34375 332.464844 C 201.695312 332.996094 202.078125 333.511719 202.480469 334.003906 C 202.886719 334.5 203.316406 334.972656 203.765625 335.421875 C 204.21875 335.875 204.691406 336.304688 205.183594 336.710938 C 205.675781 337.117188 206.1875 337.496094 206.71875 337.851562 C 207.25 338.207031 207.796875 338.535156 208.359375 338.835938 C 208.921875 339.136719 209.5 339.410156 210.089844 339.65625 C 210.679688 339.898438 211.28125 340.113281 211.890625 340.300781 C 212.5 340.484375 213.121094 340.640625 213.746094 340.765625 C 214.371094 340.890625 215.003906 340.984375 215.636719 341.046875 C 216.273438 341.109375 216.910156 341.140625 217.546875 341.140625 C 218.1875 341.140625 218.824219 341.109375 219.457031 341.046875 C 220.09375 340.984375 220.722656 340.890625 221.351562 340.765625 C 221.976562 340.640625 222.59375 340.484375 223.207031 340.300781 C 223.816406 340.113281 224.417969 339.898438 225.007812 339.65625 C 225.597656 339.410156 226.171875 339.136719 226.734375 338.835938 C 227.296875 338.535156 227.84375 338.207031 228.375 337.851562 C 228.90625 337.496094 229.417969 337.117188 229.914062 336.710938 C 230.40625 336.304688 230.878906 335.875 231.328125 335.421875 C 231.78125 334.972656 232.210938 334.5 232.613281 334.003906 C 233.019531 333.511719 233.398438 332.996094 233.753906 332.464844 C 234.109375 331.933594 234.4375 331.386719 234.738281 330.824219 C 235.039062 330.257812 235.3125 329.679688 235.554688 329.089844 C 235.800781 328.5 236.015625 327.898438 236.199219 327.289062 C 236.382812 326.675781 236.539062 326.054688 236.664062 325.429688 C 236.789062 324.800781 236.882812 324.171875 236.945312 323.535156 C 237.007812 322.898438 237.039062 322.261719 237.039062 321.621094 C 237.039062 320.980469 237.007812 320.34375 236.945312 319.707031 C 236.882812 319.070312 236.789062 318.441406 236.664062 317.8125 C 236.539062 317.183594 236.382812 316.566406 236.199219 315.953125 C 236.015625 315.34375 235.800781 314.742188 235.554688 314.152344 C 235.3125 313.558594 235.039062 312.984375 234.738281 312.417969 C 234.4375 311.855469 234.109375 311.308594 233.753906 310.777344 C 233.398438 310.246094 233.019531 309.730469 232.613281 309.238281 C 232.210938 308.742188 231.78125 308.269531 231.328125 307.816406 C 230.878906 307.367188 230.40625 306.9375 229.914062 306.53125 C 229.417969 306.125 228.90625 305.746094 228.375 305.390625 C 227.84375 305.035156 227.296875 304.707031 226.734375 304.40625 C 226.171875 304.105469 225.597656 303.832031 225.007812 303.585938 C 224.417969 303.339844 223.816406 303.125 223.207031 302.941406 C 222.59375 302.753906 221.976562 302.601562 221.351562 302.476562 C 220.722656 302.351562 220.09375 302.257812 219.457031 302.195312 C 218.824219 302.132812 218.1875 302.101562 217.546875 302.101562 Z M 167.429688 90.722656 C 167.429688 76.777344 156.292969 65.625 142.371094 65.625 C 128.449219 65.625 117.3125 76.777344 117.3125 90.722656 C 112.578125 87.097656 107.007812 85.144531 100.605469 85.144531 C 85.292969 85.144531 72.761719 97.691406 72.761719 113.03125 C 72.761719 116.097656 73.316406 118.886719 74.152344 121.398438 C 73.597656 121.398438 73.316406 121.398438 72.761719 121.398438 C 55.777344 121.398438 42.132812 135.0625 42.132812 152.070312 C 42.132812 158.765625 44.082031 164.621094 47.703125 169.640625 C 36.007812 177.167969 28.210938 189.996094 28.210938 205.054688 C 28.210938 219.835938 36.007812 232.941406 47.421875 240.191406 C 44.082031 246.328125 42.132812 253.300781 42.132812 260.828125 C 42.132812 283.972656 60.789062 302.65625 83.898438 302.65625 C 84.734375 302.65625 85.570312 302.65625 86.40625 302.65625 C 91.972656 318.832031 107.566406 330.542969 125.664062 330.542969 C 148.773438 330.542969 167.429688 311.859375 167.429688 288.714844 C 167.429688 265.847656 167.429688 104.664062 167.429688 90.722656 Z M 167.429688 90.722656 "/><g clip-rule="nonzero" clip-path="url(#9854ab66d8)"><path style=" stroke:none;fill-rule:nonzero;fill:#444b54;fill-opacity:1;" d="M 142.371094 57.257812 C 128.171875 57.257812 116.199219 65.902344 111.1875 78.453125 C 107.84375 77.335938 104.226562 76.777344 100.605469 76.777344 C 80.558594 76.777344 64.410156 92.953125 64.410156 113.03125 C 64.410156 113.03125 64.410156 113.03125 64.410156 113.308594 C 46.867188 117.214844 33.503906 132.832031 33.503906 151.515625 C 33.503906 157.089844 34.617188 162.390625 36.84375 167.410156 C 26.261719 176.890625 19.859375 190.554688 19.859375 205.054688 C 19.859375 206.730469 19.859375 208.125 20.136719 209.519531 C 20.136719 209.796875 20.136719 210.074219 20.136719 210.355469 C 20.414062 211.75 20.414062 213.421875 20.695312 214.816406 C 20.695312 215.09375 20.695312 215.09375 20.695312 215.375 C 20.972656 216.769531 21.25 218.164062 21.808594 219.558594 C 21.808594 219.558594 21.808594 219.835938 21.808594 219.835938 C 22.363281 221.230469 22.921875 222.625 23.476562 224.296875 C 23.476562 224.296875 23.476562 224.578125 23.757812 224.578125 C 24.871094 227.363281 26.542969 230.152344 28.210938 232.664062 C 28.210938 232.664062 28.210938 232.941406 28.488281 232.941406 C 30.160156 235.453125 32.109375 237.683594 34.335938 239.914062 C 34.617188 240.191406 34.617188 240.191406 34.894531 240.472656 C 36.007812 241.308594 36.84375 242.421875 37.957031 243.261719 C 38.234375 243.539062 38.515625 243.816406 38.792969 243.816406 C 39.628906 244.375 40.464844 244.933594 41.296875 245.492188 C 41.855469 245.769531 42.132812 246.046875 42.691406 246.605469 C 42.691406 246.605469 42.96875 246.886719 42.96875 246.886719 C 43.246094 246.886719 43.246094 247.164062 43.527344 247.164062 C 51.320312 251.90625 60.230469 254.695312 69.976562 254.695312 C 97.542969 254.695312 120.09375 232.105469 120.09375 204.496094 L 120.09375 190.554688 C 120.09375 185.8125 116.476562 182.1875 111.742188 182.1875 C 107.007812 182.1875 103.390625 185.8125 103.390625 190.554688 L 103.390625 204.496094 C 103.390625 222.902344 88.355469 237.960938 69.976562 237.960938 C 63.292969 237.960938 57.167969 236.007812 51.878906 232.664062 C 49.652344 231.269531 47.421875 229.597656 45.753906 227.644531 C 45.476562 227.363281 45.195312 227.085938 45.195312 226.808594 C 44.640625 226.25 44.082031 225.414062 43.527344 224.574219 C 43.246094 224.296875 42.96875 224.019531 42.691406 223.460938 C 42.132812 222.625 41.578125 221.789062 41.019531 220.949219 C 41.019531 220.671875 40.742188 220.671875 40.742188 220.394531 C 40.183594 219.277344 39.628906 218.164062 39.070312 217.046875 C 38.792969 216.769531 38.792969 216.210938 38.515625 215.929688 C 38.234375 215.09375 37.957031 214.257812 37.679688 213.421875 C 37.679688 212.863281 37.398438 212.585938 37.398438 212.027344 C 37.121094 211.191406 37.121094 210.355469 36.84375 209.515625 C 36.84375 209.238281 36.84375 208.679688 36.566406 208.402344 C 36.566406 207.84375 36.566406 206.449219 36.566406 205.054688 C 36.566406 193.621094 42.410156 183.027344 52.15625 176.890625 C 55.21875 174.9375 56.613281 171.3125 55.777344 167.6875 C 55.5 166.574219 55.21875 165.179688 54.382812 164.0625 C 51.601562 160.160156 50.207031 155.976562 50.207031 151.234375 C 50.207031 140.359375 58.003906 131.4375 68.304688 129.203125 C 74.433594 140.917969 86.40625 149.003906 100.605469 149.003906 C 105.339844 149.003906 108.957031 145.378906 108.957031 140.636719 C 108.957031 135.898438 105.339844 132.273438 100.605469 132.273438 C 91.972656 132.273438 84.457031 126.417969 81.949219 118.609375 C 81.671875 117.769531 81.394531 116.933594 81.394531 116.097656 C 81.394531 115.820312 81.394531 115.820312 81.394531 115.539062 C 81.394531 114.703125 81.113281 113.867188 81.113281 112.75 C 81.113281 101.875 89.746094 93.230469 100.605469 93.230469 C 104.78125 93.230469 108.957031 94.625 112.300781 97.136719 C 114.804688 99.085938 118.148438 99.367188 120.929688 97.972656 C 123.714844 96.578125 125.664062 93.789062 125.664062 90.441406 C 125.664062 90.441406 125.664062 90.441406 125.664062 90.164062 C 125.664062 80.960938 133.183594 73.710938 142.371094 73.710938 C 151.558594 73.710938 159.078125 81.242188 159.078125 90.441406 L 159.078125 288.4375 C 159.078125 306.839844 144.042969 321.898438 125.664062 321.898438 C 111.464844 321.898438 98.933594 312.976562 94.199219 299.589844 C 93.085938 295.964844 89.46875 293.734375 85.847656 294.011719 L 85.011719 294.011719 C 84.734375 294.011719 84.175781 294.011719 83.898438 294.011719 C 65.523438 294.011719 50.488281 278.953125 50.488281 260.550781 C 50.488281 255.808594 46.867188 252.183594 42.132812 252.183594 C 37.398438 252.183594 33.78125 255.808594 33.78125 260.550781 C 33.78125 287.042969 54.664062 309.070312 80.835938 310.746094 C 89.1875 327.753906 106.453125 338.632812 125.664062 338.632812 C 153.230469 338.632812 175.78125 316.042969 175.78125 288.4375 L 175.78125 90.441406 C 175.78125 72.316406 160.746094 57.257812 142.371094 57.257812 Z M 142.371094 57.257812 "/></g><path style=" stroke:none;fill-rule:nonzero;fill:#444b54;fill-opacity:1;" d="M 61.625 178.285156 L 47.703125 178.285156 C 42.96875 178.285156 39.347656 174.660156 39.347656 169.917969 C 39.347656 165.179688 42.96875 161.554688 47.703125 161.554688 L 61.625 161.554688 C 66.359375 161.554688 69.976562 165.179688 69.976562 169.917969 C 69.976562 174.660156 66.359375 178.285156 61.625 178.285156 Z M 61.625 178.285156 "/><path style=" stroke:none;fill-rule:nonzero;fill:#ffffff;fill-opacity:1;" d="M 315 176.613281 C 314.363281 176.613281 313.726562 176.644531 313.089844 176.707031 C 312.453125 176.769531 311.824219 176.863281 311.199219 176.988281 C 310.570312 177.113281 309.953125 177.265625 309.34375 177.453125 C 308.730469 177.636719 308.132812 177.851562 307.542969 178.097656 C 306.953125 178.34375 306.375 178.617188 305.8125 178.917969 C 305.25 179.21875 304.703125 179.546875 304.171875 179.902344 C 303.640625 180.257812 303.128906 180.636719 302.636719 181.042969 C 302.140625 181.449219 301.671875 181.878906 301.21875 182.328125 C 300.765625 182.78125 300.339844 183.253906 299.933594 183.75 C 299.527344 184.242188 299.148438 184.753906 298.792969 185.289062 C 298.441406 185.820312 298.113281 186.367188 297.8125 186.929688 C 297.511719 187.492188 297.238281 188.070312 296.992188 188.660156 C 296.75 189.253906 296.535156 189.855469 296.347656 190.464844 C 296.164062 191.078125 296.007812 191.695312 295.882812 192.324219 C 295.761719 192.949219 295.667969 193.582031 295.605469 194.21875 C 295.542969 194.855469 295.511719 195.492188 295.511719 196.132812 C 295.511719 196.769531 295.542969 197.410156 295.605469 198.046875 C 295.667969 198.683594 295.761719 199.3125 295.882812 199.941406 C 296.007812 200.566406 296.164062 201.1875 296.347656 201.796875 C 296.535156 202.410156 296.75 203.011719 296.992188 203.601562 C 297.238281 204.191406 297.511719 204.769531 297.8125 205.335938 C 298.113281 205.898438 298.441406 206.445312 298.792969 206.976562 C 299.148438 207.507812 299.527344 208.023438 299.933594 208.515625 C 300.339844 209.011719 300.765625 209.484375 301.21875 209.933594 C 301.671875 210.386719 302.140625 210.816406 302.636719 211.222656 C 303.128906 211.628906 303.640625 212.007812 304.171875 212.363281 C 304.703125 212.71875 305.25 213.046875 305.8125 213.347656 C 306.375 213.648438 306.953125 213.921875 307.542969 214.167969 C 308.132812 214.410156 308.730469 214.625 309.34375 214.8125 C 309.953125 214.996094 310.570312 215.152344 311.199219 215.277344 C 311.824219 215.402344 312.453125 215.496094 313.089844 215.558594 C 313.726562 215.621094 314.363281 215.652344 315 215.652344 C 315.640625 215.652344 316.277344 215.621094 316.910156 215.558594 C 317.546875 215.496094 318.175781 215.402344 318.804688 215.277344 C 319.429688 215.152344 320.046875 214.996094 320.660156 214.8125 C 321.269531 214.625 321.871094 214.410156 322.460938 214.167969 C 323.050781 213.921875 323.625 213.648438 324.1875 213.347656 C 324.75 213.046875 325.296875 212.71875 325.828125 212.363281 C 326.359375 212.007812 326.871094 211.628906 327.363281 211.222656 C 327.859375 210.816406 328.332031 210.386719 328.78125 209.933594 C 329.234375 209.484375 329.660156 209.011719 330.066406 208.515625 C 330.472656 208.023438 330.851562 207.507812 331.207031 206.976562 C 331.5625 206.445312 331.890625 205.898438 332.191406 205.335938 C 332.492188 204.769531 332.761719 204.191406 333.007812 203.601562 C 333.25 203.011719 333.464844 202.410156 333.652344 201.796875 C 333.835938 201.1875 333.992188 200.566406 334.117188 199.941406 C 334.242188 199.3125 334.335938 198.683594 334.398438 198.046875 C 334.460938 197.410156 334.492188 196.769531 334.492188 196.132812 C 334.492188 195.492188 334.460938 194.855469 334.398438 194.21875 C 334.335938 193.582031 334.242188 192.949219 334.117188 192.324219 C 333.992188 191.695312 333.835938 191.078125 333.652344 190.464844 C 333.464844 189.855469 333.25 189.253906 333.007812 188.660156 C 332.761719 188.070312 332.492188 187.492188 332.191406 186.929688 C 331.890625 186.367188 331.5625 185.820312 331.207031 185.289062 C 330.851562 184.753906 330.472656 184.242188 330.066406 183.75 C 329.660156 183.253906 329.234375 182.78125 328.78125 182.328125 C 328.332031 181.878906 327.859375 181.449219 327.363281 181.042969 C 326.871094 180.636719 326.359375 180.257812 325.828125 179.902344 C 325.296875 179.546875 324.75 179.21875 324.1875 178.917969 C 323.625 178.617188 323.050781 178.34375 322.460938 178.097656 C 321.871094 177.851562 321.269531 177.636719 320.660156 177.453125 C 320.046875 177.265625 319.429688 177.113281 318.804688 176.988281 C 318.175781 176.863281 317.546875 176.769531 316.910156 176.707031 C 316.277344 176.644531 315.640625 176.613281 315 176.613281 Z M 289.941406 90.164062 C 289.304688 90.164062 288.667969 90.195312 288.03125 90.257812 C 287.394531 90.320312 286.765625 90.414062 286.140625 90.539062 C 285.511719 90.664062 284.894531 90.820312 284.285156 91.003906 C 283.671875 91.191406 283.074219 91.40625 282.484375 91.648438 C 281.894531 91.894531 281.316406 92.167969 280.753906 92.46875 C 280.191406 92.769531 279.644531 93.097656 279.113281 93.453125 C 278.582031 93.808594 278.070312 94.1875 277.578125 94.59375 C 277.082031 95 276.609375 95.429688 276.160156 95.882812 C 275.707031 96.332031 275.28125 96.804688 274.875 97.300781 C 274.46875 97.796875 274.089844 98.308594 273.734375 98.839844 C 273.382812 99.371094 273.054688 99.917969 272.753906 100.484375 C 272.453125 101.046875 272.179688 101.625 271.933594 102.214844 C 271.691406 102.804688 271.476562 103.40625 271.289062 104.019531 C 271.105469 104.628906 270.949219 105.25 270.824219 105.875 C 270.699219 106.503906 270.605469 107.136719 270.542969 107.769531 C 270.480469 108.40625 270.449219 109.046875 270.449219 109.683594 C 270.449219 110.324219 270.480469 110.960938 270.542969 111.597656 C 270.605469 112.234375 270.699219 112.867188 270.824219 113.492188 C 270.949219 114.121094 271.105469 114.738281 271.289062 115.351562 C 271.476562 115.960938 271.691406 116.5625 271.933594 117.15625 C 272.179688 117.746094 272.453125 118.324219 272.753906 118.886719 C 273.054688 119.449219 273.382812 119.996094 273.734375 120.53125 C 274.089844 121.0625 274.46875 121.574219 274.875 122.066406 C 275.28125 122.5625 275.707031 123.035156 276.160156 123.488281 C 276.609375 123.941406 277.082031 124.367188 277.578125 124.773438 C 278.070312 125.179688 278.582031 125.558594 279.113281 125.914062 C 279.644531 126.269531 280.191406 126.597656 280.753906 126.898438 C 281.316406 127.203125 281.894531 127.472656 282.484375 127.71875 C 283.074219 127.964844 283.671875 128.179688 284.285156 128.363281 C 284.894531 128.550781 285.511719 128.703125 286.140625 128.828125 C 286.765625 128.953125 287.394531 129.046875 288.03125 129.109375 C 288.667969 129.171875 289.304688 129.203125 289.941406 129.203125 C 290.578125 129.203125 291.214844 129.171875 291.851562 129.109375 C 292.488281 129.046875 293.117188 128.953125 293.742188 128.828125 C 294.371094 128.703125 294.988281 128.550781 295.597656 128.363281 C 296.210938 128.179688 296.808594 127.964844 297.398438 127.71875 C 297.988281 127.472656 298.566406 127.203125 299.128906 126.898438 C 299.691406 126.597656 300.238281 126.269531 300.769531 125.914062 C 301.300781 125.558594 301.8125 125.179688 302.304688 124.773438 C 302.800781 124.367188 303.273438 123.941406 303.722656 123.488281 C 304.175781 123.035156 304.601562 122.5625 305.007812 122.066406 C 305.414062 121.574219 305.792969 121.0625 306.148438 120.53125 C 306.5 119.996094 306.828125 119.449219 307.128906 118.886719 C 307.429688 118.324219 307.703125 117.746094 307.949219 117.15625 C 308.191406 116.5625 308.40625 115.960938 308.59375 115.351562 C 308.777344 114.738281 308.933594 114.121094 309.058594 113.492188 C 309.183594 112.867188 309.277344 112.234375 309.339844 111.597656 C 309.402344 110.960938 309.433594 110.324219 309.433594 109.683594 C 309.433594 109.046875 309.402344 108.40625 309.339844 107.769531 C 309.277344 107.136719 309.183594 106.503906 309.058594 105.875 C 308.933594 105.25 308.777344 104.628906 308.59375 104.019531 C 308.40625 103.40625 308.191406 102.804688 307.949219 102.214844 C 307.703125 101.625 307.429688 101.046875 307.128906 100.484375 C 306.828125 99.917969 306.5 99.371094 306.148438 98.839844 C 305.792969 98.308594 305.414062 97.796875 305.007812 97.300781 C 304.601562 96.804688 304.175781 96.332031 303.722656 95.882812 C 303.273438 95.429688 302.800781 95 302.304688 94.59375 C 301.8125 94.1875 301.300781 93.808594 300.769531 93.453125 C 300.238281 93.097656 299.691406 92.769531 299.128906 92.46875 C 298.566406 92.167969 297.988281 91.894531 297.398438 91.648438 C 296.808594 91.40625 296.210938 91.191406 295.597656 91.003906 C 294.988281 90.820312 294.371094 90.664062 293.742188 90.539062 C 293.117188 90.414062 292.488281 90.320312 291.851562 90.257812 C 291.214844 90.195312 290.578125 90.164062 289.941406 90.164062 Z M 289.941406 263.058594 C 289.304688 263.058594 288.667969 263.089844 288.03125 263.152344 C 287.394531 263.214844 286.765625 263.308594 286.140625 263.433594 C 285.511719 263.558594 284.894531 263.714844 284.285156 263.898438 C 283.671875 264.085938 283.074219 264.300781 282.484375 264.546875 C 281.894531 264.789062 281.316406 265.0625 280.753906 265.363281 C 280.191406 265.664062 279.644531 265.992188 279.113281 266.347656 C 278.582031 266.703125 278.070312 267.085938 277.578125 267.492188 C 277.082031 267.894531 276.609375 268.324219 276.160156 268.777344 C 275.707031 269.230469 275.28125 269.703125 274.875 270.195312 C 274.46875 270.691406 274.089844 271.203125 273.734375 271.734375 C 273.382812 272.265625 273.054688 272.8125 272.753906 273.378906 C 272.453125 273.941406 272.179688 274.519531 271.933594 275.109375 C 271.691406 275.699219 271.476562 276.300781 271.289062 276.914062 C 271.105469 277.523438 270.949219 278.144531 270.824219 278.773438 C 270.699219 279.398438 270.605469 280.03125 270.542969 280.667969 C 270.480469 281.304688 270.449219 281.941406 270.449219 282.578125 C 270.449219 283.21875 270.480469 283.855469 270.542969 284.492188 C 270.605469 285.128906 270.699219 285.761719 270.824219 286.386719 C 270.949219 287.015625 271.105469 287.632812 271.289062 288.246094 C 271.476562 288.859375 271.691406 289.460938 271.933594 290.050781 C 272.179688 290.640625 272.453125 291.21875 272.753906 291.78125 C 273.054688 292.34375 273.382812 292.894531 273.734375 293.425781 C 274.089844 293.957031 274.46875 294.46875 274.875 294.964844 C 275.28125 295.457031 275.707031 295.929688 276.160156 296.382812 C 276.609375 296.835938 277.082031 297.265625 277.578125 297.667969 C 278.070312 298.074219 278.582031 298.457031 279.113281 298.808594 C 279.644531 299.164062 280.191406 299.492188 280.753906 299.796875 C 281.316406 300.097656 281.894531 300.371094 282.484375 300.613281 C 283.074219 300.859375 283.671875 301.074219 284.285156 301.261719 C 284.894531 301.445312 285.511719 301.601562 286.140625 301.726562 C 286.765625 301.851562 287.394531 301.945312 288.03125 302.007812 C 288.667969 302.070312 289.304688 302.101562 289.941406 302.101562 C 290.578125 302.101562 291.214844 302.070312 291.851562 302.007812 C 292.488281 301.945312 293.117188 301.851562 293.742188 301.726562 C 294.371094 301.601562 294.988281 301.445312 295.597656 301.261719 C 296.210938 301.074219 296.808594 300.859375 297.398438 300.613281 C 297.988281 300.371094 298.566406 300.097656 299.128906 299.796875 C 299.691406 299.492188 300.238281 299.164062 300.769531 298.808594 C 301.300781 298.457031 301.8125 298.074219 302.304688 297.667969 C 302.800781 297.265625 303.273438 296.835938 303.722656 296.382812 C 304.175781 295.929688 304.601562 295.457031 305.007812 294.964844 C 305.414062 294.46875 305.792969 293.957031 306.148438 293.425781 C 306.5 292.894531 306.828125 292.34375 307.128906 291.78125 C 307.429688 291.21875 307.703125 290.640625 307.949219 290.050781 C 308.191406 289.460938 308.40625 288.859375 308.59375 288.246094 C 308.777344 287.632812 308.933594 287.015625 309.058594 286.386719 C 309.183594 285.761719 309.277344 285.128906 309.339844 284.492188 C 309.402344 283.855469 309.433594 283.21875 309.433594 282.578125 C 309.433594 281.941406 309.402344 281.304688 309.339844 280.667969 C 309.277344 280.03125 309.183594 279.398438 309.058594 278.773438 C 308.933594 278.144531 308.777344 277.523438 308.59375 276.914062 C 308.40625 276.300781 308.191406 275.699219 307.949219 275.109375 C 307.703125 274.519531 307.429688 273.941406 307.128906 273.378906 C 306.828125 272.8125 306.5 272.265625 306.148438 271.734375 C 305.792969 271.203125 305.414062 270.691406 305.007812 270.195312 C 304.601562 269.703125 304.175781 269.230469 303.722656 268.777344 C 303.273438 268.324219 302.800781 267.894531 302.304688 267.492188 C 301.8125 267.085938 301.300781 266.703125 300.769531 266.347656 C 300.238281 265.992188 299.691406 265.664062 299.128906 265.363281 C 298.566406 265.0625 297.988281 264.789062 297.398438 264.546875 C 296.808594 264.300781 296.210938 264.085938 295.597656 263.898438 C 294.988281 263.714844 294.371094 263.558594 293.742188 263.433594 C 293.117188 263.308594 292.488281 263.214844 291.851562 263.152344 C 291.214844 263.089844 290.578125 263.058594 289.941406 263.058594 Z M 289.941406 263.058594 "/><path style=" stroke:none;fill-rule:nonzero;fill:#71c2ff;fill-opacity:1;" d="M 276.019531 277.003906 C 273.792969 277.003906 271.84375 276.164062 270.171875 274.492188 L 242.050781 246.328125 L 203.625 246.328125 C 198.894531 246.328125 195.273438 242.703125 195.273438 237.960938 C 195.273438 233.222656 198.894531 229.597656 203.625 229.597656 L 245.390625 229.597656 C 247.621094 229.597656 249.847656 230.433594 251.238281 232.105469 L 281.867188 262.78125 C 285.207031 266.125 285.207031 271.425781 281.867188 274.492188 C 280.195312 276.164062 278.246094 277.003906 276.019531 277.003906 Z M 245.390625 162.667969 L 203.625 162.667969 C 198.894531 162.667969 195.273438 159.042969 195.273438 154.300781 C 195.273438 149.5625 198.894531 145.9375 203.625 145.9375 L 242.050781 145.9375 L 270.171875 117.769531 C 273.511719 114.425781 278.804688 114.425781 281.867188 117.769531 C 285.207031 121.117188 285.207031 126.417969 281.867188 129.484375 L 251.238281 160.160156 C 249.847656 161.832031 247.621094 162.667969 245.390625 162.667969 Z M 295.511719 204.5 L 203.625 204.5 C 198.894531 204.5 195.273438 200.871094 195.273438 196.132812 C 195.273438 191.390625 198.894531 187.765625 203.625 187.765625 L 295.511719 187.765625 C 300.242188 187.765625 303.863281 191.390625 303.863281 196.132812 C 303.863281 200.871094 300.242188 204.5 295.511719 204.5 Z M 295.511719 204.5 "/><g clip-rule="nonzero" clip-path="url(#1b58548bc4)"><path style=" stroke:none;fill-rule:nonzero;fill:#71c2ff;fill-opacity:1;" d="M 315 224.019531 C 299.6875 224.019531 287.15625 211.46875 287.15625 196.132812 C 287.15625 180.792969 299.6875 168.246094 315 168.246094 C 330.316406 168.246094 342.84375 180.792969 342.84375 196.132812 C 342.84375 211.46875 330.316406 224.019531 315 224.019531 Z M 315 184.976562 C 308.875 184.976562 303.863281 189.996094 303.863281 196.132812 C 303.863281 202.265625 308.875 207.285156 315 207.285156 C 321.125 207.285156 326.136719 202.265625 326.136719 196.132812 C 326.136719 189.996094 321.125 184.976562 315 184.976562 Z M 289.941406 137.570312 C 274.628906 137.570312 262.097656 125.023438 262.097656 109.683594 C 262.097656 94.347656 274.628906 81.796875 289.941406 81.796875 C 305.253906 81.796875 317.785156 94.347656 317.785156 109.683594 C 317.785156 125.023438 305.253906 137.570312 289.941406 137.570312 Z M 289.941406 98.53125 C 283.816406 98.53125 278.804688 103.550781 278.804688 109.683594 C 278.804688 115.820312 283.816406 120.839844 289.941406 120.839844 C 296.066406 120.839844 301.078125 115.820312 301.078125 109.683594 C 301.078125 103.550781 296.066406 98.53125 289.941406 98.53125 Z M 217.546875 98.53125 C 202.234375 98.53125 189.703125 85.980469 189.703125 70.644531 C 189.703125 55.304688 202.234375 42.757812 217.546875 42.757812 C 232.863281 42.757812 245.390625 55.304688 245.390625 70.644531 C 245.390625 85.980469 232.863281 98.53125 217.546875 98.53125 Z M 217.546875 59.488281 C 211.421875 59.488281 206.410156 64.507812 206.410156 70.644531 C 206.410156 76.777344 211.421875 81.796875 217.546875 81.796875 C 223.671875 81.796875 228.683594 76.777344 228.683594 70.644531 C 228.683594 64.507812 223.671875 59.488281 217.546875 59.488281 Z M 289.941406 310.464844 C 274.628906 310.464844 262.097656 297.917969 262.097656 282.578125 C 262.097656 267.242188 274.628906 254.695312 289.941406 254.695312 C 305.253906 254.695312 317.785156 267.242188 317.785156 282.578125 C 317.785156 297.917969 305.253906 310.464844 289.941406 310.464844 Z M 289.941406 271.425781 C 283.816406 271.425781 278.804688 276.445312 278.804688 282.578125 C 278.804688 288.714844 283.816406 293.734375 289.941406 293.734375 C 296.066406 293.734375 301.078125 288.714844 301.078125 282.578125 C 301.078125 276.445312 296.066406 271.425781 289.941406 271.425781 Z M 217.546875 349.507812 C 202.234375 349.507812 189.703125 336.957031 189.703125 321.621094 C 189.703125 306.285156 202.234375 293.734375 217.546875 293.734375 C 232.863281 293.734375 245.390625 306.285156 245.390625 321.621094 C 245.390625 336.957031 232.863281 349.507812 217.546875 349.507812 Z M 217.546875 310.464844 C 211.421875 310.464844 206.410156 315.484375 206.410156 321.621094 C 206.410156 327.753906 211.421875 332.773438 217.546875 332.773438 C 223.671875 332.773438 228.683594 327.753906 228.683594 321.621094 C 228.683594 315.484375 223.671875 310.464844 217.546875 310.464844 Z M 217.546875 310.464844 "/></g><g transform="matrix(1,0,0,1,19,354)"><g clip-path="url(#b529b41fa4)"><g style="fill:#ffffff;fill-opacity:1;"><g transform="translate(0.726439, 10.231196)"><path style="stroke:none" d="M 0.921875 0 L 0.921875 -7.359375 L 1.6875 -7.359375 L 1.6875 -4.5 L 1.796875 -4.484375 C 2.171875 -5.054688 2.707031 -5.34375 3.40625 -5.34375 C 4.039062 -5.34375 4.5 -5.179688 4.78125 -4.859375 C 5.070312 -4.546875 5.21875 -4.050781 5.21875 -3.375 L 5.21875 0 L 4.4375 0 L 4.4375 -3.359375 C 4.4375 -3.679688 4.394531 -3.9375 4.3125 -4.125 C 4.226562 -4.3125 4.101562 -4.445312 3.9375 -4.53125 C 3.769531 -4.625 3.546875 -4.671875 3.265625 -4.671875 C 2.796875 -4.671875 2.414062 -4.515625 2.125 -4.203125 C 1.832031 -3.898438 1.6875 -3.394531 1.6875 -2.6875 L 1.6875 0 Z M 0.921875 0 "/></g></g></g></g></g></svg>